<mxfile host="app.diagrams.net" modified="2021-05-06T08:35:07.311Z" agent="5.0 (Macintosh; Intel Mac OS X 10_15_7) AppleWebKit/537.36 (KHTML, like Gecko) Chrome/90.0.4430.93 Safari/537.36" etag="nz7DQY3wjm5Qc4NWxwLD" version="14.6.10" type="github">
  <diagram id="C5RBs43oDa-KdzZeNtuy" name="Page-1">
    <mxGraphModel dx="946" dy="614" grid="1" gridSize="10" guides="1" tooltips="1" connect="1" arrows="1" fold="1" page="1" pageScale="1" pageWidth="827" pageHeight="1169" math="0" shadow="0">
      <root>
        <mxCell id="WIyWlLk6GJQsqaUBKTNV-0" />
        <mxCell id="WIyWlLk6GJQsqaUBKTNV-1" parent="WIyWlLk6GJQsqaUBKTNV-0" />
        <mxCell id="uHYNFPHBfb48LKpqUWFU-60" value="" style="fontSize=12;html=1;endArrow=ERzeroToMany;endFill=1;startArrow=ERzeroToMany;rounded=0;exitX=0.5;exitY=0;exitDx=0;exitDy=0;" edge="1" parent="WIyWlLk6GJQsqaUBKTNV-1" source="uHYNFPHBfb48LKpqUWFU-47">
          <mxGeometry width="100" height="100" relative="1" as="geometry">
            <mxPoint x="200" y="360" as="sourcePoint" />
            <mxPoint x="130" y="340" as="targetPoint" />
          </mxGeometry>
        </mxCell>
        <mxCell id="uHYNFPHBfb48LKpqUWFU-35" value="" style="edgeStyle=entityRelationEdgeStyle;fontSize=12;html=1;endArrow=ERoneToMany;startArrow=ERzeroToMany;rounded=0;entryX=1;entryY=0.5;entryDx=0;entryDy=0;entryPerimeter=0;exitX=0;exitY=0.5;exitDx=0;exitDy=0;" edge="1" parent="WIyWlLk6GJQsqaUBKTNV-1" source="uHYNFPHBfb48LKpqUWFU-127" target="uHYNFPHBfb48LKpqUWFU-98">
          <mxGeometry width="100" height="100" relative="1" as="geometry">
            <mxPoint x="340" y="300" as="sourcePoint" />
            <mxPoint x="220" y="265" as="targetPoint" />
          </mxGeometry>
        </mxCell>
        <mxCell id="uHYNFPHBfb48LKpqUWFU-46" value="" style="edgeStyle=entityRelationEdgeStyle;fontSize=12;html=1;endArrow=ERzeroToMany;startArrow=ERmandOne;rounded=0;entryX=0;entryY=0.5;entryDx=0;entryDy=0;exitX=1;exitY=0.5;exitDx=0;exitDy=0;" edge="1" parent="WIyWlLk6GJQsqaUBKTNV-1" source="uHYNFPHBfb48LKpqUWFU-127">
          <mxGeometry width="100" height="100" relative="1" as="geometry">
            <mxPoint x="530" y="265" as="sourcePoint" />
            <mxPoint x="630" y="265" as="targetPoint" />
          </mxGeometry>
        </mxCell>
        <mxCell id="uHYNFPHBfb48LKpqUWFU-47" value="Group" style="shape=table;startSize=30;container=1;collapsible=1;childLayout=tableLayout;fixedRows=1;rowLines=0;fontStyle=1;align=center;resizeLast=1;" vertex="1" parent="WIyWlLk6GJQsqaUBKTNV-1">
          <mxGeometry x="40" y="400" width="180" height="160" as="geometry" />
        </mxCell>
        <mxCell id="uHYNFPHBfb48LKpqUWFU-48" value="" style="shape=partialRectangle;collapsible=0;dropTarget=0;pointerEvents=0;fillColor=none;top=0;left=0;bottom=1;right=0;points=[[0,0.5],[1,0.5]];portConstraint=eastwest;" vertex="1" parent="uHYNFPHBfb48LKpqUWFU-47">
          <mxGeometry y="30" width="180" height="30" as="geometry" />
        </mxCell>
        <mxCell id="uHYNFPHBfb48LKpqUWFU-49" value="PK" style="shape=partialRectangle;connectable=0;fillColor=none;top=0;left=0;bottom=0;right=0;fontStyle=1;overflow=hidden;" vertex="1" parent="uHYNFPHBfb48LKpqUWFU-48">
          <mxGeometry width="30" height="30" as="geometry" />
        </mxCell>
        <mxCell id="uHYNFPHBfb48LKpqUWFU-50" value="Id" style="shape=partialRectangle;connectable=0;fillColor=none;top=0;left=0;bottom=0;right=0;align=left;spacingLeft=6;fontStyle=5;overflow=hidden;" vertex="1" parent="uHYNFPHBfb48LKpqUWFU-48">
          <mxGeometry x="30" width="150" height="30" as="geometry" />
        </mxCell>
        <mxCell id="uHYNFPHBfb48LKpqUWFU-51" value="" style="shape=partialRectangle;collapsible=0;dropTarget=0;pointerEvents=0;fillColor=none;top=0;left=0;bottom=0;right=0;points=[[0,0.5],[1,0.5]];portConstraint=eastwest;" vertex="1" parent="uHYNFPHBfb48LKpqUWFU-47">
          <mxGeometry y="60" width="180" height="30" as="geometry" />
        </mxCell>
        <mxCell id="uHYNFPHBfb48LKpqUWFU-52" value="" style="shape=partialRectangle;connectable=0;fillColor=none;top=0;left=0;bottom=0;right=0;editable=1;overflow=hidden;" vertex="1" parent="uHYNFPHBfb48LKpqUWFU-51">
          <mxGeometry width="30" height="30" as="geometry" />
        </mxCell>
        <mxCell id="uHYNFPHBfb48LKpqUWFU-53" value="Name" style="shape=partialRectangle;connectable=0;fillColor=none;top=0;left=0;bottom=0;right=0;align=left;spacingLeft=6;overflow=hidden;" vertex="1" parent="uHYNFPHBfb48LKpqUWFU-51">
          <mxGeometry x="30" width="150" height="30" as="geometry" />
        </mxCell>
        <mxCell id="uHYNFPHBfb48LKpqUWFU-54" value="" style="shape=partialRectangle;collapsible=0;dropTarget=0;pointerEvents=0;fillColor=none;top=0;left=0;bottom=0;right=0;points=[[0,0.5],[1,0.5]];portConstraint=eastwest;" vertex="1" parent="uHYNFPHBfb48LKpqUWFU-47">
          <mxGeometry y="90" width="180" height="30" as="geometry" />
        </mxCell>
        <mxCell id="uHYNFPHBfb48LKpqUWFU-55" value="" style="shape=partialRectangle;connectable=0;fillColor=none;top=0;left=0;bottom=0;right=0;editable=1;overflow=hidden;" vertex="1" parent="uHYNFPHBfb48LKpqUWFU-54">
          <mxGeometry width="30" height="30" as="geometry" />
        </mxCell>
        <mxCell id="uHYNFPHBfb48LKpqUWFU-56" value="" style="shape=partialRectangle;connectable=0;fillColor=none;top=0;left=0;bottom=0;right=0;align=left;spacingLeft=6;overflow=hidden;" vertex="1" parent="uHYNFPHBfb48LKpqUWFU-54">
          <mxGeometry x="30" width="150" height="30" as="geometry" />
        </mxCell>
        <mxCell id="uHYNFPHBfb48LKpqUWFU-57" value="" style="shape=partialRectangle;collapsible=0;dropTarget=0;pointerEvents=0;fillColor=none;top=0;left=0;bottom=0;right=0;points=[[0,0.5],[1,0.5]];portConstraint=eastwest;" vertex="1" parent="uHYNFPHBfb48LKpqUWFU-47">
          <mxGeometry y="120" width="180" height="30" as="geometry" />
        </mxCell>
        <mxCell id="uHYNFPHBfb48LKpqUWFU-58" value="" style="shape=partialRectangle;connectable=0;fillColor=none;top=0;left=0;bottom=0;right=0;editable=1;overflow=hidden;" vertex="1" parent="uHYNFPHBfb48LKpqUWFU-57">
          <mxGeometry width="30" height="30" as="geometry" />
        </mxCell>
        <mxCell id="uHYNFPHBfb48LKpqUWFU-59" value="" style="shape=partialRectangle;connectable=0;fillColor=none;top=0;left=0;bottom=0;right=0;align=left;spacingLeft=6;overflow=hidden;" vertex="1" parent="uHYNFPHBfb48LKpqUWFU-57">
          <mxGeometry x="30" width="150" height="30" as="geometry" />
        </mxCell>
        <mxCell id="uHYNFPHBfb48LKpqUWFU-94" value="User" style="shape=table;startSize=30;container=1;collapsible=1;childLayout=tableLayout;fixedRows=1;rowLines=0;fontStyle=1;align=center;resizeLast=1;" vertex="1" parent="WIyWlLk6GJQsqaUBKTNV-1">
          <mxGeometry x="40" y="160" width="180" height="180" as="geometry" />
        </mxCell>
        <mxCell id="uHYNFPHBfb48LKpqUWFU-95" value="" style="shape=partialRectangle;collapsible=0;dropTarget=0;pointerEvents=0;fillColor=none;top=0;left=0;bottom=1;right=0;points=[[0,0.5],[1,0.5]];portConstraint=eastwest;" vertex="1" parent="uHYNFPHBfb48LKpqUWFU-94">
          <mxGeometry y="30" width="180" height="30" as="geometry" />
        </mxCell>
        <mxCell id="uHYNFPHBfb48LKpqUWFU-96" value="PK" style="shape=partialRectangle;connectable=0;fillColor=none;top=0;left=0;bottom=0;right=0;fontStyle=1;overflow=hidden;" vertex="1" parent="uHYNFPHBfb48LKpqUWFU-95">
          <mxGeometry width="30" height="30" as="geometry" />
        </mxCell>
        <mxCell id="uHYNFPHBfb48LKpqUWFU-97" value="User_id" style="shape=partialRectangle;connectable=0;fillColor=none;top=0;left=0;bottom=0;right=0;align=left;spacingLeft=6;fontStyle=5;overflow=hidden;" vertex="1" parent="uHYNFPHBfb48LKpqUWFU-95">
          <mxGeometry x="30" width="150" height="30" as="geometry" />
        </mxCell>
        <mxCell id="uHYNFPHBfb48LKpqUWFU-107" style="shape=partialRectangle;collapsible=0;dropTarget=0;pointerEvents=0;fillColor=none;top=0;left=0;bottom=1;right=0;points=[[0,0.5],[1,0.5]];portConstraint=eastwest;" vertex="1" parent="uHYNFPHBfb48LKpqUWFU-94">
          <mxGeometry y="60" width="180" height="30" as="geometry" />
        </mxCell>
        <mxCell id="uHYNFPHBfb48LKpqUWFU-108" value="FK" style="shape=partialRectangle;connectable=0;fillColor=none;top=0;left=0;bottom=0;right=0;fontStyle=1;overflow=hidden;" vertex="1" parent="uHYNFPHBfb48LKpqUWFU-107">
          <mxGeometry width="30" height="30" as="geometry" />
        </mxCell>
        <mxCell id="uHYNFPHBfb48LKpqUWFU-109" value="Group_id" style="shape=partialRectangle;connectable=0;fillColor=none;top=0;left=0;bottom=0;right=0;align=left;spacingLeft=6;fontStyle=5;overflow=hidden;" vertex="1" parent="uHYNFPHBfb48LKpqUWFU-107">
          <mxGeometry x="30" width="150" height="30" as="geometry" />
        </mxCell>
        <mxCell id="uHYNFPHBfb48LKpqUWFU-98" value="" style="shape=partialRectangle;collapsible=0;dropTarget=0;pointerEvents=0;fillColor=none;top=0;left=0;bottom=0;right=0;points=[[0,0.5],[1,0.5]];portConstraint=eastwest;" vertex="1" parent="uHYNFPHBfb48LKpqUWFU-94">
          <mxGeometry y="90" width="180" height="30" as="geometry" />
        </mxCell>
        <mxCell id="uHYNFPHBfb48LKpqUWFU-99" value="" style="shape=partialRectangle;connectable=0;fillColor=none;top=0;left=0;bottom=0;right=0;editable=1;overflow=hidden;" vertex="1" parent="uHYNFPHBfb48LKpqUWFU-98">
          <mxGeometry width="30" height="30" as="geometry" />
        </mxCell>
        <mxCell id="uHYNFPHBfb48LKpqUWFU-100" value="Name" style="shape=partialRectangle;connectable=0;fillColor=none;top=0;left=0;bottom=0;right=0;align=left;spacingLeft=6;overflow=hidden;" vertex="1" parent="uHYNFPHBfb48LKpqUWFU-98">
          <mxGeometry x="30" width="150" height="30" as="geometry" />
        </mxCell>
        <mxCell id="uHYNFPHBfb48LKpqUWFU-101" value="" style="shape=partialRectangle;collapsible=0;dropTarget=0;pointerEvents=0;fillColor=none;top=0;left=0;bottom=0;right=0;points=[[0,0.5],[1,0.5]];portConstraint=eastwest;" vertex="1" parent="uHYNFPHBfb48LKpqUWFU-94">
          <mxGeometry y="120" width="180" height="30" as="geometry" />
        </mxCell>
        <mxCell id="uHYNFPHBfb48LKpqUWFU-102" value="" style="shape=partialRectangle;connectable=0;fillColor=none;top=0;left=0;bottom=0;right=0;editable=1;overflow=hidden;" vertex="1" parent="uHYNFPHBfb48LKpqUWFU-101">
          <mxGeometry width="30" height="30" as="geometry" />
        </mxCell>
        <mxCell id="uHYNFPHBfb48LKpqUWFU-103" value="Sex" style="shape=partialRectangle;connectable=0;fillColor=none;top=0;left=0;bottom=0;right=0;align=left;spacingLeft=6;overflow=hidden;" vertex="1" parent="uHYNFPHBfb48LKpqUWFU-101">
          <mxGeometry x="30" width="150" height="30" as="geometry" />
        </mxCell>
        <mxCell id="uHYNFPHBfb48LKpqUWFU-104" value="" style="shape=partialRectangle;collapsible=0;dropTarget=0;pointerEvents=0;fillColor=none;top=0;left=0;bottom=0;right=0;points=[[0,0.5],[1,0.5]];portConstraint=eastwest;" vertex="1" parent="uHYNFPHBfb48LKpqUWFU-94">
          <mxGeometry y="150" width="180" height="20" as="geometry" />
        </mxCell>
        <mxCell id="uHYNFPHBfb48LKpqUWFU-105" value="" style="shape=partialRectangle;connectable=0;fillColor=none;top=0;left=0;bottom=0;right=0;editable=1;overflow=hidden;" vertex="1" parent="uHYNFPHBfb48LKpqUWFU-104">
          <mxGeometry width="30" height="20" as="geometry" />
        </mxCell>
        <mxCell id="uHYNFPHBfb48LKpqUWFU-106" value="E-mail" style="shape=partialRectangle;connectable=0;fillColor=none;top=0;left=0;bottom=0;right=0;align=left;spacingLeft=6;overflow=hidden;" vertex="1" parent="uHYNFPHBfb48LKpqUWFU-104">
          <mxGeometry x="30" width="150" height="20" as="geometry" />
        </mxCell>
        <mxCell id="uHYNFPHBfb48LKpqUWFU-123" value="Menu" style="shape=table;startSize=30;container=1;collapsible=1;childLayout=tableLayout;fixedRows=1;rowLines=0;fontStyle=1;align=center;resizeLast=1;" vertex="1" parent="WIyWlLk6GJQsqaUBKTNV-1">
          <mxGeometry x="360" y="160" width="180" height="220" as="geometry" />
        </mxCell>
        <mxCell id="uHYNFPHBfb48LKpqUWFU-124" value="" style="shape=partialRectangle;collapsible=0;dropTarget=0;pointerEvents=0;fillColor=none;top=0;left=0;bottom=1;right=0;points=[[0,0.5],[1,0.5]];portConstraint=eastwest;" vertex="1" parent="uHYNFPHBfb48LKpqUWFU-123">
          <mxGeometry y="30" width="180" height="30" as="geometry" />
        </mxCell>
        <mxCell id="uHYNFPHBfb48LKpqUWFU-125" value="PK" style="shape=partialRectangle;connectable=0;fillColor=none;top=0;left=0;bottom=0;right=0;fontStyle=1;overflow=hidden;" vertex="1" parent="uHYNFPHBfb48LKpqUWFU-124">
          <mxGeometry width="30" height="30" as="geometry" />
        </mxCell>
        <mxCell id="uHYNFPHBfb48LKpqUWFU-126" value="Menu_id" style="shape=partialRectangle;connectable=0;fillColor=none;top=0;left=0;bottom=0;right=0;align=left;spacingLeft=6;fontStyle=5;overflow=hidden;" vertex="1" parent="uHYNFPHBfb48LKpqUWFU-124">
          <mxGeometry x="30" width="150" height="30" as="geometry" />
        </mxCell>
        <mxCell id="uHYNFPHBfb48LKpqUWFU-136" style="shape=partialRectangle;collapsible=0;dropTarget=0;pointerEvents=0;fillColor=none;top=0;left=0;bottom=1;right=0;points=[[0,0.5],[1,0.5]];portConstraint=eastwest;" vertex="1" parent="uHYNFPHBfb48LKpqUWFU-123">
          <mxGeometry y="60" width="180" height="30" as="geometry" />
        </mxCell>
        <mxCell id="uHYNFPHBfb48LKpqUWFU-137" value="FK" style="shape=partialRectangle;connectable=0;fillColor=none;top=0;left=0;bottom=0;right=0;fontStyle=1;overflow=hidden;" vertex="1" parent="uHYNFPHBfb48LKpqUWFU-136">
          <mxGeometry width="30" height="30" as="geometry" />
        </mxCell>
        <mxCell id="uHYNFPHBfb48LKpqUWFU-138" value="Group_id" style="shape=partialRectangle;connectable=0;fillColor=none;top=0;left=0;bottom=0;right=0;align=left;spacingLeft=6;fontStyle=5;overflow=hidden;" vertex="1" parent="uHYNFPHBfb48LKpqUWFU-136">
          <mxGeometry x="30" width="150" height="30" as="geometry" />
        </mxCell>
        <mxCell id="uHYNFPHBfb48LKpqUWFU-127" value="" style="shape=partialRectangle;collapsible=0;dropTarget=0;pointerEvents=0;fillColor=none;top=0;left=0;bottom=0;right=0;points=[[0,0.5],[1,0.5]];portConstraint=eastwest;" vertex="1" parent="uHYNFPHBfb48LKpqUWFU-123">
          <mxGeometry y="90" width="180" height="30" as="geometry" />
        </mxCell>
        <mxCell id="uHYNFPHBfb48LKpqUWFU-128" value="" style="shape=partialRectangle;connectable=0;fillColor=none;top=0;left=0;bottom=0;right=0;editable=1;overflow=hidden;" vertex="1" parent="uHYNFPHBfb48LKpqUWFU-127">
          <mxGeometry width="30" height="30" as="geometry" />
        </mxCell>
        <mxCell id="uHYNFPHBfb48LKpqUWFU-129" value="date" style="shape=partialRectangle;connectable=0;fillColor=none;top=0;left=0;bottom=0;right=0;align=left;spacingLeft=6;overflow=hidden;" vertex="1" parent="uHYNFPHBfb48LKpqUWFU-127">
          <mxGeometry x="30" width="150" height="30" as="geometry" />
        </mxCell>
        <mxCell id="uHYNFPHBfb48LKpqUWFU-130" value="" style="shape=partialRectangle;collapsible=0;dropTarget=0;pointerEvents=0;fillColor=none;top=0;left=0;bottom=0;right=0;points=[[0,0.5],[1,0.5]];portConstraint=eastwest;" vertex="1" parent="uHYNFPHBfb48LKpqUWFU-123">
          <mxGeometry y="120" width="180" height="30" as="geometry" />
        </mxCell>
        <mxCell id="uHYNFPHBfb48LKpqUWFU-131" value="" style="shape=partialRectangle;connectable=0;fillColor=none;top=0;left=0;bottom=0;right=0;editable=1;overflow=hidden;" vertex="1" parent="uHYNFPHBfb48LKpqUWFU-130">
          <mxGeometry width="30" height="30" as="geometry" />
        </mxCell>
        <mxCell id="uHYNFPHBfb48LKpqUWFU-132" value="level" style="shape=partialRectangle;connectable=0;fillColor=none;top=0;left=0;bottom=0;right=0;align=left;spacingLeft=6;overflow=hidden;" vertex="1" parent="uHYNFPHBfb48LKpqUWFU-130">
          <mxGeometry x="30" width="150" height="30" as="geometry" />
        </mxCell>
        <mxCell id="uHYNFPHBfb48LKpqUWFU-133" value="" style="shape=partialRectangle;collapsible=0;dropTarget=0;pointerEvents=0;fillColor=none;top=0;left=0;bottom=0;right=0;points=[[0,0.5],[1,0.5]];portConstraint=eastwest;" vertex="1" parent="uHYNFPHBfb48LKpqUWFU-123">
          <mxGeometry y="150" width="180" height="30" as="geometry" />
        </mxCell>
        <mxCell id="uHYNFPHBfb48LKpqUWFU-134" value="" style="shape=partialRectangle;connectable=0;fillColor=none;top=0;left=0;bottom=0;right=0;editable=1;overflow=hidden;" vertex="1" parent="uHYNFPHBfb48LKpqUWFU-133">
          <mxGeometry width="30" height="30" as="geometry" />
        </mxCell>
        <mxCell id="uHYNFPHBfb48LKpqUWFU-135" value="aim" style="shape=partialRectangle;connectable=0;fillColor=none;top=0;left=0;bottom=0;right=0;align=left;spacingLeft=6;overflow=hidden;" vertex="1" parent="uHYNFPHBfb48LKpqUWFU-133">
          <mxGeometry x="30" width="150" height="30" as="geometry" />
        </mxCell>
        <mxCell id="uHYNFPHBfb48LKpqUWFU-142" style="shape=partialRectangle;collapsible=0;dropTarget=0;pointerEvents=0;fillColor=none;top=0;left=0;bottom=0;right=0;points=[[0,0.5],[1,0.5]];portConstraint=eastwest;" vertex="1" parent="uHYNFPHBfb48LKpqUWFU-123">
          <mxGeometry y="180" width="180" height="30" as="geometry" />
        </mxCell>
        <mxCell id="uHYNFPHBfb48LKpqUWFU-143" style="shape=partialRectangle;connectable=0;fillColor=none;top=0;left=0;bottom=0;right=0;editable=1;overflow=hidden;" vertex="1" parent="uHYNFPHBfb48LKpqUWFU-142">
          <mxGeometry width="30" height="30" as="geometry" />
        </mxCell>
        <mxCell id="uHYNFPHBfb48LKpqUWFU-144" value="description" style="shape=partialRectangle;connectable=0;fillColor=none;top=0;left=0;bottom=0;right=0;align=left;spacingLeft=6;overflow=hidden;" vertex="1" parent="uHYNFPHBfb48LKpqUWFU-142">
          <mxGeometry x="30" width="150" height="30" as="geometry" />
        </mxCell>
        <mxCell id="uHYNFPHBfb48LKpqUWFU-149" value="" style="edgeStyle=orthogonalEdgeStyle;fontSize=12;html=1;endArrow=ERzeroToMany;endFill=1;rounded=0;exitX=1;exitY=0.5;exitDx=0;exitDy=0;entryX=0.5;entryY=1;entryDx=0;entryDy=0;" edge="1" parent="WIyWlLk6GJQsqaUBKTNV-1" source="uHYNFPHBfb48LKpqUWFU-54" target="uHYNFPHBfb48LKpqUWFU-123">
          <mxGeometry width="100" height="100" relative="1" as="geometry">
            <mxPoint x="420" y="400" as="sourcePoint" />
            <mxPoint x="520" y="300" as="targetPoint" />
          </mxGeometry>
        </mxCell>
        <mxCell id="uHYNFPHBfb48LKpqUWFU-150" value="Practice" style="shape=table;startSize=30;container=1;collapsible=1;childLayout=tableLayout;fixedRows=1;rowLines=0;fontStyle=1;align=center;resizeLast=1;" vertex="1" parent="WIyWlLk6GJQsqaUBKTNV-1">
          <mxGeometry x="630" y="160" width="180" height="340" as="geometry" />
        </mxCell>
        <mxCell id="uHYNFPHBfb48LKpqUWFU-151" value="" style="shape=partialRectangle;collapsible=0;dropTarget=0;pointerEvents=0;fillColor=none;top=0;left=0;bottom=1;right=0;points=[[0,0.5],[1,0.5]];portConstraint=eastwest;" vertex="1" parent="uHYNFPHBfb48LKpqUWFU-150">
          <mxGeometry y="30" width="180" height="30" as="geometry" />
        </mxCell>
        <mxCell id="uHYNFPHBfb48LKpqUWFU-152" value="PK" style="shape=partialRectangle;connectable=0;fillColor=none;top=0;left=0;bottom=0;right=0;fontStyle=1;overflow=hidden;" vertex="1" parent="uHYNFPHBfb48LKpqUWFU-151">
          <mxGeometry width="30" height="30" as="geometry" />
        </mxCell>
        <mxCell id="uHYNFPHBfb48LKpqUWFU-153" value="Practice_id" style="shape=partialRectangle;connectable=0;fillColor=none;top=0;left=0;bottom=0;right=0;align=left;spacingLeft=6;fontStyle=5;overflow=hidden;" vertex="1" parent="uHYNFPHBfb48LKpqUWFU-151">
          <mxGeometry x="30" width="150" height="30" as="geometry" />
        </mxCell>
        <mxCell id="uHYNFPHBfb48LKpqUWFU-181" style="shape=partialRectangle;collapsible=0;dropTarget=0;pointerEvents=0;fillColor=none;top=0;left=0;bottom=1;right=0;points=[[0,0.5],[1,0.5]];portConstraint=eastwest;" vertex="1" parent="uHYNFPHBfb48LKpqUWFU-150">
          <mxGeometry y="60" width="180" height="30" as="geometry" />
        </mxCell>
        <mxCell id="uHYNFPHBfb48LKpqUWFU-182" value="FK" style="shape=partialRectangle;connectable=0;fillColor=none;top=0;left=0;bottom=0;right=0;fontStyle=1;overflow=hidden;" vertex="1" parent="uHYNFPHBfb48LKpqUWFU-181">
          <mxGeometry width="30" height="30" as="geometry" />
        </mxCell>
        <mxCell id="uHYNFPHBfb48LKpqUWFU-183" value="Menu_id" style="shape=partialRectangle;connectable=0;fillColor=none;top=0;left=0;bottom=0;right=0;align=left;spacingLeft=6;fontStyle=5;overflow=hidden;" vertex="1" parent="uHYNFPHBfb48LKpqUWFU-181">
          <mxGeometry x="30" width="150" height="30" as="geometry" />
        </mxCell>
        <mxCell id="uHYNFPHBfb48LKpqUWFU-154" value="" style="shape=partialRectangle;collapsible=0;dropTarget=0;pointerEvents=0;fillColor=none;top=0;left=0;bottom=0;right=0;points=[[0,0.5],[1,0.5]];portConstraint=eastwest;" vertex="1" parent="uHYNFPHBfb48LKpqUWFU-150">
          <mxGeometry y="90" width="180" height="30" as="geometry" />
        </mxCell>
        <mxCell id="uHYNFPHBfb48LKpqUWFU-155" value="" style="shape=partialRectangle;connectable=0;fillColor=none;top=0;left=0;bottom=0;right=0;editable=1;overflow=hidden;" vertex="1" parent="uHYNFPHBfb48LKpqUWFU-154">
          <mxGeometry width="30" height="30" as="geometry" />
        </mxCell>
        <mxCell id="uHYNFPHBfb48LKpqUWFU-156" value="date" style="shape=partialRectangle;connectable=0;fillColor=none;top=0;left=0;bottom=0;right=0;align=left;spacingLeft=6;overflow=hidden;" vertex="1" parent="uHYNFPHBfb48LKpqUWFU-154">
          <mxGeometry x="30" width="150" height="30" as="geometry" />
        </mxCell>
        <mxCell id="uHYNFPHBfb48LKpqUWFU-157" value="" style="shape=partialRectangle;collapsible=0;dropTarget=0;pointerEvents=0;fillColor=none;top=0;left=0;bottom=0;right=0;points=[[0,0.5],[1,0.5]];portConstraint=eastwest;" vertex="1" parent="uHYNFPHBfb48LKpqUWFU-150">
          <mxGeometry y="120" width="180" height="30" as="geometry" />
        </mxCell>
        <mxCell id="uHYNFPHBfb48LKpqUWFU-158" value="" style="shape=partialRectangle;connectable=0;fillColor=none;top=0;left=0;bottom=0;right=0;editable=1;overflow=hidden;" vertex="1" parent="uHYNFPHBfb48LKpqUWFU-157">
          <mxGeometry width="30" height="30" as="geometry" />
        </mxCell>
        <mxCell id="uHYNFPHBfb48LKpqUWFU-159" value="Category" style="shape=partialRectangle;connectable=0;fillColor=none;top=0;left=0;bottom=0;right=0;align=left;spacingLeft=6;overflow=hidden;" vertex="1" parent="uHYNFPHBfb48LKpqUWFU-157">
          <mxGeometry x="30" width="150" height="30" as="geometry" />
        </mxCell>
        <mxCell id="uHYNFPHBfb48LKpqUWFU-169" style="shape=partialRectangle;collapsible=0;dropTarget=0;pointerEvents=0;fillColor=none;top=0;left=0;bottom=0;right=0;points=[[0,0.5],[1,0.5]];portConstraint=eastwest;" vertex="1" parent="uHYNFPHBfb48LKpqUWFU-150">
          <mxGeometry y="150" width="180" height="30" as="geometry" />
        </mxCell>
        <mxCell id="uHYNFPHBfb48LKpqUWFU-170" style="shape=partialRectangle;connectable=0;fillColor=none;top=0;left=0;bottom=0;right=0;editable=1;overflow=hidden;" vertex="1" parent="uHYNFPHBfb48LKpqUWFU-169">
          <mxGeometry width="30" height="30" as="geometry" />
        </mxCell>
        <mxCell id="uHYNFPHBfb48LKpqUWFU-171" value="System" style="shape=partialRectangle;connectable=0;fillColor=none;top=0;left=0;bottom=0;right=0;align=left;spacingLeft=6;overflow=hidden;" vertex="1" parent="uHYNFPHBfb48LKpqUWFU-169">
          <mxGeometry x="30" width="150" height="30" as="geometry" />
        </mxCell>
        <mxCell id="uHYNFPHBfb48LKpqUWFU-166" style="shape=partialRectangle;collapsible=0;dropTarget=0;pointerEvents=0;fillColor=none;top=0;left=0;bottom=0;right=0;points=[[0,0.5],[1,0.5]];portConstraint=eastwest;" vertex="1" parent="uHYNFPHBfb48LKpqUWFU-150">
          <mxGeometry y="180" width="180" height="30" as="geometry" />
        </mxCell>
        <mxCell id="uHYNFPHBfb48LKpqUWFU-167" style="shape=partialRectangle;connectable=0;fillColor=none;top=0;left=0;bottom=0;right=0;editable=1;overflow=hidden;" vertex="1" parent="uHYNFPHBfb48LKpqUWFU-166">
          <mxGeometry width="30" height="30" as="geometry" />
        </mxCell>
        <mxCell id="uHYNFPHBfb48LKpqUWFU-168" value="Distance" style="shape=partialRectangle;connectable=0;fillColor=none;top=0;left=0;bottom=0;right=0;align=left;spacingLeft=6;overflow=hidden;" vertex="1" parent="uHYNFPHBfb48LKpqUWFU-166">
          <mxGeometry x="30" width="150" height="30" as="geometry" />
        </mxCell>
        <mxCell id="uHYNFPHBfb48LKpqUWFU-163" style="shape=partialRectangle;collapsible=0;dropTarget=0;pointerEvents=0;fillColor=none;top=0;left=0;bottom=0;right=0;points=[[0,0.5],[1,0.5]];portConstraint=eastwest;" vertex="1" parent="uHYNFPHBfb48LKpqUWFU-150">
          <mxGeometry y="210" width="180" height="30" as="geometry" />
        </mxCell>
        <mxCell id="uHYNFPHBfb48LKpqUWFU-164" style="shape=partialRectangle;connectable=0;fillColor=none;top=0;left=0;bottom=0;right=0;editable=1;overflow=hidden;" vertex="1" parent="uHYNFPHBfb48LKpqUWFU-163">
          <mxGeometry width="30" height="30" as="geometry" />
        </mxCell>
        <mxCell id="uHYNFPHBfb48LKpqUWFU-165" value="Times" style="shape=partialRectangle;connectable=0;fillColor=none;top=0;left=0;bottom=0;right=0;align=left;spacingLeft=6;overflow=hidden;" vertex="1" parent="uHYNFPHBfb48LKpqUWFU-163">
          <mxGeometry x="30" width="150" height="30" as="geometry" />
        </mxCell>
        <mxCell id="uHYNFPHBfb48LKpqUWFU-175" style="shape=partialRectangle;collapsible=0;dropTarget=0;pointerEvents=0;fillColor=none;top=0;left=0;bottom=0;right=0;points=[[0,0.5],[1,0.5]];portConstraint=eastwest;" vertex="1" parent="uHYNFPHBfb48LKpqUWFU-150">
          <mxGeometry y="240" width="180" height="30" as="geometry" />
        </mxCell>
        <mxCell id="uHYNFPHBfb48LKpqUWFU-176" style="shape=partialRectangle;connectable=0;fillColor=none;top=0;left=0;bottom=0;right=0;editable=1;overflow=hidden;" vertex="1" parent="uHYNFPHBfb48LKpqUWFU-175">
          <mxGeometry width="30" height="30" as="geometry" />
        </mxCell>
        <mxCell id="uHYNFPHBfb48LKpqUWFU-177" value="Set" style="shape=partialRectangle;connectable=0;fillColor=none;top=0;left=0;bottom=0;right=0;align=left;spacingLeft=6;overflow=hidden;" vertex="1" parent="uHYNFPHBfb48LKpqUWFU-175">
          <mxGeometry x="30" width="150" height="30" as="geometry" />
        </mxCell>
        <mxCell id="uHYNFPHBfb48LKpqUWFU-172" style="shape=partialRectangle;collapsible=0;dropTarget=0;pointerEvents=0;fillColor=none;top=0;left=0;bottom=0;right=0;points=[[0,0.5],[1,0.5]];portConstraint=eastwest;" vertex="1" parent="uHYNFPHBfb48LKpqUWFU-150">
          <mxGeometry y="270" width="180" height="30" as="geometry" />
        </mxCell>
        <mxCell id="uHYNFPHBfb48LKpqUWFU-173" style="shape=partialRectangle;connectable=0;fillColor=none;top=0;left=0;bottom=0;right=0;editable=1;overflow=hidden;" vertex="1" parent="uHYNFPHBfb48LKpqUWFU-172">
          <mxGeometry width="30" height="30" as="geometry" />
        </mxCell>
        <mxCell id="uHYNFPHBfb48LKpqUWFU-174" value="OnTime" style="shape=partialRectangle;connectable=0;fillColor=none;top=0;left=0;bottom=0;right=0;align=left;spacingLeft=6;overflow=hidden;" vertex="1" parent="uHYNFPHBfb48LKpqUWFU-172">
          <mxGeometry x="30" width="150" height="30" as="geometry" />
        </mxCell>
        <mxCell id="uHYNFPHBfb48LKpqUWFU-160" value="" style="shape=partialRectangle;collapsible=0;dropTarget=0;pointerEvents=0;fillColor=none;top=0;left=0;bottom=0;right=0;points=[[0,0.5],[1,0.5]];portConstraint=eastwest;" vertex="1" parent="uHYNFPHBfb48LKpqUWFU-150">
          <mxGeometry y="300" width="180" height="30" as="geometry" />
        </mxCell>
        <mxCell id="uHYNFPHBfb48LKpqUWFU-161" value="" style="shape=partialRectangle;connectable=0;fillColor=none;top=0;left=0;bottom=0;right=0;editable=1;overflow=hidden;" vertex="1" parent="uHYNFPHBfb48LKpqUWFU-160">
          <mxGeometry width="30" height="30" as="geometry" />
        </mxCell>
        <mxCell id="uHYNFPHBfb48LKpqUWFU-162" value="description" style="shape=partialRectangle;connectable=0;fillColor=none;top=0;left=0;bottom=0;right=0;align=left;spacingLeft=6;overflow=hidden;" vertex="1" parent="uHYNFPHBfb48LKpqUWFU-160">
          <mxGeometry x="30" width="150" height="30" as="geometry" />
        </mxCell>
      </root>
    </mxGraphModel>
  </diagram>
</mxfile>
